ply
format ascii 1.0
element vertex 15
property float x
property float y
property float z
property uchar red
property uchar green
property uchar blue
property uchar alpha
property uint label
end_header
3.20171928405761719 7.58462953567504883 1.39076054096221924 0 143 156 238 18
3.21727681159973145 7.53768301010131836 1.41007649898529053 0 143 156 238 18
3.22296762466430664 7.52636432647705078 1.37075555324554443 0 143 156 238 18
4.031097412109375 1.12744224071502686 0.283097684383392334 189 211 147 222 34
4.04772615432739258 1.15199840068817139 0.286263197660446167 189 211 147 222 34
4.06004190444946289 1.10800552368164062 0.253566771745681763 0 0 0 0 0
3.58203482627868652 1.37068259716033936 0.296153604984283447 0 0 255 244 12
3.54893350601196289 1.36449730396270752 0.286224216222763062 0 0 255 244 12
3.55281782150268555 1.34912002086639404 0.289122164249420166 0 0 255 244 12
4.09257173538208008 1.49986457824707031 0.397627949714660645 158 0 142 245 11
4.11940097808837891 1.40620017051696777 0.397059231996536255 158 0 142 245 11
4.0739288330078125 1.52944183349609375 0.433989524841308594 158 0 142 245 11
4.1181330680847168 1.1165386438369751 0.235398218035697937 189 211 147 222 34
4.10820960998535156 1.12306714057922363 0.215582698583602905 189 211 147 222 34
4.1067657470703125 1.13161635398864746 0.277569979429244995 189 211 147 222 34
